<svg xmlns="http://www.w3.org/2000/svg" xmlns:xlink="http://www.w3.org/1999/xlink" width="298.6" height="298.6" viewBox="0 0 298.6 298.6"><defs><circle id="a" cx="149.3" cy="149.3" r="149.3"/></defs><use xlink:href="#a" overflow="visible" fill="#FDE0AD"/><clipPath id="b"><use xlink:href="#a" overflow="visible"/></clipPath><g clip-path="url(#b)"><path d="M238.8 149.3c0 49.4-40 89.4-89.4 89.4-49.4 0-89.4-40-89.4-89.4 0-49.4 40-89.4 89.4-89.4 49.3 0 89.4 40 89.4 89.4z" fill="#FBCD7A"/><path fill="#FEF7EB" d="M1 143.1h298.6v51.5H1z"/><path fill="#0270B7" d="M66.3 88.9h28.3v71.4H66.3z"/><path fill="#80B7DB" d="M39.1 102.1h27.2v58.1H39.1z"/><path fill="#358DC5" d="M36.3 98.2h30v4h-30z"/><path fill="#FAD399" d="M73.9 146.8h12.7v13.4H73.9z"/><path fill="#F7B34C" d="M71.5 144h17.4v2.9H71.5z"/><g fill="#E6F1F8"><path d="M43.6 105.2h3.8v11.3h-3.8zM50.8 105.2h3.8v11.3h-3.8zM58 105.2h3.8v11.3H58z"/></g><g fill="#E6F1F8"><path d="M43.6 123.8h3.8v11.3h-3.8zM50.8 123.8h3.8v11.3h-3.8zM58 123.8h3.8v11.3H58z"/></g><g fill="#E6F1F8"><path d="M43.6 142.3h3.8v11.3h-3.8zM50.8 142.3h3.8v11.3h-3.8zM58 142.3h3.8v11.3H58z"/></g><path fill="#F9B233" d="M63.7 83.5h33.4v5.3H63.7z"/><path fill="#80B7DB" d="M94.6 102.3h27.2v58.1H94.6z"/><path fill="#358DC5" d="M94.6 98.3h30v4h-30z"/><g fill="#E6F1F8"><path d="M99 105.4h3.8v11.3H99zM106.2 105.4h3.8v11.3h-3.8zM113.4 105.4h3.8v11.3h-3.8z"/></g><g fill="#E6F1F8"><path d="M99 123.9h3.8v11.3H99zM106.2 123.9h3.8v11.3h-3.8zM113.4 123.9h3.8v11.3h-3.8z"/></g><g fill="#E6F1F8"><path d="M99 142.5h3.8v11.3H99zM106.2 142.5h3.8v11.3h-3.8zM113.4 142.5h3.8v11.3h-3.8z"/></g><g fill="#CCE2F1"><path d="M69.8 95.7h9.1v10.5h-9.1zM81.9 95.7H91v10.5h-9.1z"/></g><g fill="#CCE2F1"><path d="M69.8 111.5h9.1V122h-9.1zM81.9 111.5H91V122h-9.1z"/></g><g fill="#CCE2F1"><path d="M69.8 127.3h9.1v10.5h-9.1zM81.9 127.3H91v10.5h-9.1z"/></g><g><path fill="#80B7DB" d="M185.3 89.4h37.2v70.7h-37.2z"/><path fill="#4E9BCD" d="M222.5 113.2h37.2v46.9h-37.2z"/><path d="M248 160.1v-10.5s-1.4-5.5-6.9-5.7c-5.5.2-6.9 5.7-6.9 5.7v10.5H248z" fill="#FBC970"/><path fill="#CCE2F1" d="M226.3 117.1h29.5v9.2h-29.5zM226.3 130.2h29.5v9.2h-29.5z"/><g fill="#E6F1F8"><path d="M189 94.9h7.2v7.2H189zM200.3 94.9h7.2v7.2h-7.2zM211.7 94.9h7.2v7.2h-7.2z"/></g><g fill="#B3D4E9"><path d="M189 107.2h7.2v7.2H189zM200.3 107.2h7.2v7.2h-7.2zM211.7 107.2h7.2v7.2h-7.2z"/></g><g fill="#E6F1F8"><path d="M189 119.4h7.2v7.2H189zM200.3 119.4h7.2v7.2h-7.2zM211.7 119.4h7.2v7.2h-7.2z"/></g><g fill="#B3D4E9"><path d="M189 131.7h7.2v7.2H189zM200.3 131.7h7.2v7.2h-7.2zM211.7 131.7h7.2v7.2h-7.2z"/></g><g fill="#E6F1F8"><path d="M189 144h7.2v7.2H189zM200.3 144h7.2v7.2h-7.2zM211.7 144h7.2v7.2h-7.2z"/></g><path fill="#0270B7" d="M222.5 107.2h40.2v6h-40.2z"/><path fill="#358DC5" d="M181.7 83.8h44.4v5.6h-44.4z"/><g fill="#0270B7"><path d="M189.6 77.5h2.3v6.3h-2.3zM215.9 77.5h2.3v6.3h-2.3z"/></g><path d="M224.6 76.2c0 .7-.6 1.3-1.3 1.3h-38.8c-.7 0-1.3-.6-1.3-1.3v-8.6c0-.7.6-1.3 1.3-1.3h38.8c.7 0 1.3.6 1.3 1.3v8.6z" fill="#F9B233"/></g><g><path fill="#0270B7" d="M133.6 93.4h39v64.8h-39z"/><g fill="#B3D4E9"><path d="M145.2 143.1h7.9v15.1h-7.9zM153.1 143.1h7.8v15.1h-7.8z"/></g><g fill="#FEF0D6"><path d="M141 98.1h10.2v10.2H141zM141 112h10.2v10.2H141zM141 126.2h10.2v10.2H141z"/><g><path d="M154.9 98.2h10.2v10.2h-10.2zM154.9 112.2h10.2v10.2h-10.2zM154.9 126.4h10.2v10.2h-10.2z"/></g></g><path fill="#4E9BCD" d="M130.9 89.5h44.3v3.9h-44.3z"/><path fill="#F9B233" d="M130.2 158.2h45.7v1.9h-45.7z"/><path fill="#80B7DB" d="M137.8 86h30.5v3.5h-30.5z"/><path fill="#0270B7" d="M152.6 143.1h.8v15.1h-.8z"/><path fill="#FBC970" d="M143.7 140.9h18.7v2.1h-18.7z"/></g><path d="M298.6 298.6H1.4V177.4s34.6 14.5 102.1 6.3c57.2-7 58.3 16.3 116.3.4 44.5-12.2 78.8-6.6 78.8-6.6v121.1z" fill="#1C99D5"/></g></svg>